# xmcd CD database file
#
# Track frame offsets:
#	150
#	29057
#	44541
#	62255
#	85024
#	102307
#	118616
#	147322
#	177540
#	195868
#	212253
#	231578
#	244849
#	259338
#	282294
#	308214
#	328541
#
# Disc length: 4705 seconds
#
# Revision: 0
# Processed by: cddbd v1.5.2PL0 Copyright (c) Steve Scherf et al.
# Submitted via: CDex 1.51
#
DISCID=f6125f11
DTITLE=Arno Geiger - Es geht uns gut CD 3
DYEAR=1900
DGENRE=Hörbuch
TTITLE0=Dienstag, 12. Mai 1955
TTITLE1=Dienstag, 12. Mai 1955
TTITLE2=Dienstag, 12. Mai 1955
TTITLE3=Montag, 07. Mai 2001
TTITLE4=Donnerstag, 31. Dezember 1970
TTITLE5=Donnerstag, 31. Dezember 1970
TTITLE6=Donnerstag, 31. Dezember 1970
TTITLE7=Donnerstag, 31. Dezember 1970
TTITLE8=Donnerstag, 31. Dezember 1970
TTITLE9=Donnerstag, 31. Dezember 1970
TTITLE10=Donnerstag, 31. Dezember 1970
TTITLE11=Donnerstag, 31. Dezember 1970
TTITLE12=Donnerstag, 14. Juni 2001
TTITLE13=Donnerstag, 14. Juni 2001
TTITLE14=Freitag, 30. Juni 1978
TTITLE15=Freitag, 30. Juni 1978
TTITLE16=Freitag, 30. Juni 1978
EXTD=
EXTT0=
EXTT1=
EXTT2=
EXTT3=
EXTT4=
EXTT5=
EXTT6=
EXTT7=
EXTT8=
EXTT9=
EXTT10=
EXTT11=
EXTT12=
EXTT13=
EXTT14=
EXTT15=
EXTT16=
PLAYORDER=
